# xmcd CD database file
#
# Track frame offsets:
#	150
#	10708
#	26380
#	45505
#	57355
#	69355
#	82403
#	93880
#	112480
#	129630
#	142633
#	155305
#	171353
#	184333
#	194833
#	208483
#
# Disc length: 2998 seconds
#
# Revision: 0
# Processed by: cddbd v1.5PL3 Copyright (c) Steve Scherf et al.
# Submitted via: CDex 1.51
#
DISCID=e80bb410
DTITLE=Jonny Hill - Koenig Der Landstrasse
DYEAR=1989
DGENRE=Country
TTITLE0=Koenig Der Landstrasse (King Of The Road)
TTITLE1=Lucille
TTITLE2=Kinder, Alte Hunde Und Junger Herber Wein
TTITLE3=Ja, Die Tuer Steht Immer Offen
TTITLE4=Mehr Hinterm Lenkrad Als Zu Hause
TTITLE5=Und Ueberhaupt Mein Bester Freund
TTITLE6=Ich Fahr Meine Tour (Six Days On The Road)
TTITLE7=Der Haus-Song
TTITLE8=Wo Der Mond Versinkt (Mary Ann Regrets)
TTITLE9=Es Sind Nur Erinnerungen (I Recall A Gipsy Woman)
TTITLE10=500 Meilen Von Zu Hause (500 Miles Away From Home)
TTITLE11=Und Wieder Zeigt Dir Einer Einen Vogel
TTITLE12=Mein Lied Fuer Dich (Annies Song)
TTITLE13=Heute Nacht Da Brauch Ich Dich (Help Me Make It Through The Night)
TTITLE14=Ich Werde Gehen (Long Gone)
TTITLE15=Und Dann Gehst Du Alleine Nach Hause
EXTD=YEAR: 1989
EXTT0=
EXTT1=
EXTT2=
EXTT3=
EXTT4=
EXTT5=
EXTT6=
EXTT7=
EXTT8=
EXTT9=
EXTT10=
EXTT11=
EXTT12=
EXTT13=
EXTT14=
EXTT15=
PLAYORDER=
